<svg width="67" height="61" viewBox="0 0 67 61" fill="none" xmlns="http://www.w3.org/2000/svg">
<path d="M48.7273 0C42.3318 0 36.6977 3.55833 33.5 9.15C30.3023 3.55833 24.6682 0 18.2727 0C8.22273 0 0 9.15 0 20.3333C0 40.4972 33.5 61 33.5 61C33.5 61 67 40.6667 67 20.3333C67 9.15 58.7773 0 48.7273 0Z" fill="#B892FF"/>
<path d="M38.496 16.0002C38.4349 16.001 38.3723 16.004 38.3101 16.0089C35.8315 16.4398 34.4686 19.0792 34.2711 21.4066C33.9826 23.5186 34.9068 26.2331 37.2095 26.7063C37.5435 26.7704 37.8906 26.7411 38.2171 26.6519C40.99 25.7156 42.2309 22.4084 41.8301 19.6691C41.7135 17.8999 40.3892 15.9759 38.496 16.0002ZM27.9879 16.1135C26.4467 16.1515 25.2462 17.7256 25.002 19.2053C24.4871 22.1369 25.8114 25.7793 28.8441 26.7063C29.1282 26.7685 29.422 26.775 29.709 26.7303C31.7588 26.3863 32.6272 24.0719 32.5414 22.2035C32.4797 19.7389 31.2084 16.8892 28.6668 16.1962C28.4345 16.1342 28.2081 16.108 27.9879 16.1135ZM45.2117 24.4397C42.5455 24.6003 40.7177 27.2792 40.4571 29.7808C40.1042 31.5849 41.0594 33.998 43.1036 34.142C45.9539 34.1067 47.8984 31.0395 47.9792 28.4003C48.1595 26.6549 47.1385 24.5361 45.2117 24.4397ZM21.8755 25.0341C20.7412 25.0243 19.6256 25.7085 19.2549 26.8696C18.266 29.9757 20.2519 33.9095 23.5187 34.5623C24.8821 34.7972 26.0801 33.7428 26.4182 32.4742C27.1346 29.7607 25.6631 26.6099 23.1728 25.3781C22.7671 25.1488 22.3193 25.038 21.8755 25.0341ZM33.8279 30.6038C31.6042 30.6086 29.3456 31.745 27.9057 33.4366C26.3506 35.4082 25.0766 37.7026 24.5782 40.1908C23.9727 41.9819 25.345 44.0432 27.2463 44.0556C29.5336 44.1196 31.4994 42.5378 33.7738 42.4204C35.7035 42.1241 37.4314 43.1349 39.1663 43.7965C40.6434 44.4327 42.6846 44.1889 43.4387 42.588C44.0319 40.9563 43.1588 39.2164 42.4355 37.7674C40.9602 35.4153 39.3797 32.9433 36.9609 31.4748C35.9913 30.8696 34.9139 30.6015 33.8279 30.6038Z" fill="#FF90B3"/>
</svg>
